<svg width="68" height="93" viewBox="0 0 68 93" fill="none" xmlns="http://www.w3.org/2000/svg">
<path d="M61.4085 31.2373C61.2373 38.8339 58.2427 46.0959 53.0063 51.6133C48.0866 56.8122 45.3436 63.6901 45.3384 70.8402C45.3152 71.8968 45.3075 72.9456 45.2843 74.0022C45.2383 74.1997 45.1763 74.3932 45.0988 74.5806H16.1973C15.9654 71.7116 15.8649 68.8041 15.463 65.9428C14.6964 60.6984 12.3169 55.8208 8.6531 51.9835C2.65483 45.482 -0.437063 37.8545 0.0499103 28.9853C0.389708 21.9748 3.1466 15.2968 7.85402 10.0814C12.5614 4.86599 18.9303 1.43347 25.8827 0.364741C30.6821 -0.377924 35.5893 0.017032 40.2074 1.51764C44.8254 3.01825 49.0246 5.58237 52.4652 9.00258L51.5067 9.9589L49.7057 11.7559C48.38 10.5769 46.6524 9.94879 44.8772 10.0004C43.1021 10.052 41.4141 10.7795 40.1595 12.0335L32.3215 19.8461C31.0417 18.5292 29.2973 17.7627 27.4595 17.7098H27.3281C26.3978 17.7091 25.4766 17.8927 24.6181 18.2502C23.7596 18.6077 22.9808 19.1318 22.327 19.7921L6.76705 35.6333C6.12471 36.2834 5.61723 37.0536 5.2737 37.8998C4.93018 38.7459 4.75735 39.6513 4.76512 40.5642C4.77289 41.4771 4.9611 42.3795 5.31897 43.2197C5.67684 44.0599 6.19734 44.8214 6.85065 45.4605C7.50396 46.0997 8.27723 46.6039 9.12619 46.9444C9.97514 47.2849 10.8831 47.4549 11.798 47.4448C12.7129 47.4346 13.6168 47.2444 14.4579 46.8851C15.2991 46.5258 16.0609 46.0044 16.6998 45.3509L26.9648 34.9083C28.1931 36.1633 29.854 36.9051 31.6104 36.983C31.7264 36.9907 31.8423 36.9907 31.9583 36.9907C32.8682 36.9907 33.7691 36.8108 34.609 36.4613C35.4488 36.1118 36.2109 35.5997 36.8511 34.9546L45.0833 26.7487C46.409 27.9277 48.1366 28.5558 49.9118 28.5042C51.6869 28.4525 53.3749 27.7251 54.6295 26.471L59.708 21.4117L59.8317 21.3655C60.164 22.2061 60.4655 23.0468 60.736 23.8874C60.9756 26.3399 61.5013 28.8002 61.4085 31.2373Z" fill="url(#paint0_linear_296_3790)"/>
<path d="M16.6077 77.8711H44.6318C45.9882 83.2903 43.1429 87.4911 37.8013 88.1007C36.4659 92.0412 36.3394 92.1306 32.1266 92.1284C30.8771 92.1276 29.6277 92.1305 28.3782 92.1284C25.271 92.1236 24.5835 91.5267 24.0035 88.3348C17.8972 86.6777 15.8316 83.8454 16.6077 77.8711Z" fill="url(#paint1_linear_296_3790)"/>
<path d="M55.2913 6.66811C56.1721 7.63224 56.8686 8.39466 57.5278 9.11631L57.5078 9.13565C57.8613 9.37087 58.1485 9.69149 58.3422 10.0672L58.3736 10.0913L49.6295 18.7539L46.6731 15.8253C46.4608 15.6149 46.2088 15.448 45.9314 15.3341C45.654 15.2202 45.3567 15.1616 45.0564 15.1616C44.7561 15.1616 44.4588 15.2202 44.1814 15.3341C43.904 15.448 43.652 15.6149 43.4397 15.8253L32.228 26.9322L29.2619 23.504C29.0556 23.2655 28.8015 23.0721 28.5158 22.9361C28.23 22.8001 27.9189 22.7244 27.602 22.7138C27.2856 22.7059 26.9708 22.7619 26.677 22.8786C26.3831 22.9952 26.1164 23.17 25.893 23.3922L10.5448 38.9029C10.3302 39.1144 10.1601 39.366 10.0444 39.6431C9.92875 39.9202 9.86975 40.2173 9.87087 40.5172C9.87198 40.817 9.93317 41.1137 10.0509 41.3899C10.1686 41.6662 10.3405 41.9166 10.5567 42.1265C10.7728 42.3364 11.0289 42.5017 11.31 42.6129C11.5911 42.724 11.8917 42.7787 12.1944 42.7739C12.497 42.769 12.7957 42.7047 13.0731 42.5846C13.3504 42.4645 13.6009 42.2911 13.8101 42.0743L27.4126 28.3279L30.3627 31.7377C30.5677 31.9747 30.8199 32.1672 31.1036 32.3031C31.3873 32.439 31.6962 32.5152 32.011 32.5271C32.3261 32.5411 32.6406 32.4894 32.9342 32.3753C33.2278 32.2613 33.494 32.0876 33.7155 31.8653L45.0564 20.6307L48.0129 23.5592C48.2251 23.7697 48.4771 23.9366 48.7545 24.0504C49.0319 24.1643 49.3293 24.2229 49.6295 24.2229C49.9298 24.2229 50.2271 24.1643 50.5045 24.0504C50.7819 23.9366 51.0339 23.7697 51.2462 23.5592L61.6227 13.2792C61.7294 13.3823 61.8359 13.4855 61.9423 13.5887L62.0036 13.5264L64.6041 15.9167C65.7669 11.5931 66.8387 7.60799 67.9999 3.29028L55.2913 6.66811Z" fill="#FAFAFA"/>
<defs>
<linearGradient id="paint0_linear_296_3790" x1="7.47637e-06" y1="65.2581" x2="62.5679" y2="9.53308" gradientUnits="userSpaceOnUse">
<stop offset="0.479167" stop-color="#F5478E"/>
<stop offset="0.981593" stop-color="#B347F5"/>
</linearGradient>
<linearGradient id="paint1_linear_296_3790" x1="16.4517" y1="90.3469" x2="25.6254" y2="70.5045" gradientUnits="userSpaceOnUse">
<stop offset="0.479167" stop-color="#F5478E"/>
<stop offset="0.981593" stop-color="#B347F5"/>
</linearGradient>
</defs>
</svg>
