<svg width="118" height="101" viewBox="0 0 118 101" fill="none" xmlns="http://www.w3.org/2000/svg">
<path d="M117.791 50.0485V100.097L84.9843 73.3166L52.178 48.2924L85.8623 23.2681L117.791 0V50.0485Z" fill="url(#paint0_linear_296_675)"/>
<path d="M73.0375 25.4631H11.7613C6.86041 25.4631 2.88745 29.4361 2.88745 34.337V64.8817C2.88745 69.7826 6.86041 73.7555 11.7613 73.7555H73.0375C77.9384 73.7555 81.9113 69.7826 81.9113 64.8817V34.337C81.9113 29.4361 77.9384 25.4631 73.0375 25.4631Z" stroke="#E4E4E4" stroke-width="5" stroke-miterlimit="10"/>
<path d="M17.3751 43.024C20.0423 43.024 22.2044 40.8618 22.2044 38.1947C22.2044 35.5276 20.0423 33.3655 17.3751 33.3655C14.708 33.3655 12.5459 35.5276 12.5459 38.1947C12.5459 40.8618 14.708 43.024 17.3751 43.024Z" fill="#E9E9E9"/>
<defs>
<linearGradient id="paint0_linear_296_675" x1="52.178" y1="87.5848" x2="131.949" y2="31.0354" gradientUnits="userSpaceOnUse">
<stop offset="0.479167" stop-color="#F5478E"/>
<stop offset="0.981593" stop-color="#B347F5"/>
</linearGradient>
</defs>
</svg>
