<svg width="114" height="97" viewBox="0 0 114 97" fill="none" xmlns="http://www.w3.org/2000/svg">
<path d="M47.1718 81.6494C47.5606 81.6359 47.9291 81.472 48.1994 81.1922C48.4697 80.9123 48.6208 80.5385 48.6208 80.1494C48.6208 79.7603 48.4697 79.3865 48.1994 79.1066C47.9291 78.8268 47.5606 78.6629 47.1718 78.6494C46.783 78.6629 46.4146 78.8268 46.1443 79.1066C45.874 79.3865 45.7229 79.7603 45.7229 80.1494C45.7229 80.5385 45.874 80.9123 46.1443 81.1922C46.4146 81.472 46.783 81.6359 47.1718 81.6494Z" fill="#232323"/>
<path d="M88.0491 7.24959C87.8164 8.06189 87.7227 8.49618 87.5691 8.90828C85.7857 13.6958 83.9858 18.4772 82.2086 23.267C82.0833 23.8141 81.7731 24.3012 81.3305 24.6463C80.8878 24.9914 80.3398 25.1734 79.7786 25.1615C78.4544 25.1464 77.1311 24.0174 77.5398 22.8372C79.4798 17.2351 81.5623 11.684 83.7873 6.18409C84.0005 5.65639 85.5831 5.30719 86.3773 5.50089C87.0819 5.67269 87.5739 6.71549 88.0491 7.24959Z" fill="white"/>
<path d="M35.7164 23.1674C35.202 23.72 34.6695 24.7785 33.9257 24.9574C33.1496 25.1438 32.1317 24.5602 31.299 24.1513C30.9901 23.9997 30.8802 23.3985 30.7247 22.9854C28.9831 18.361 27.2483 13.7341 25.5202 9.10461C24.8513 7.30381 25.2682 5.9469 26.587 5.422C28.0533 4.8383 29.272 5.5351 29.985 7.4278C31.7076 11.9999 33.4168 16.577 35.1126 21.1593C35.3044 21.6744 35.4323 22.2133 35.7164 23.1674Z" fill="white"/>
<path d="M1.93471 19.8989C2.73205 20.3195 3.47936 20.8286 4.16249 21.4168C7.58829 25.2892 10.9649 29.2054 14.332 33.1292C15.4048 34.3792 15.3786 35.7692 14.3627 36.6924C13.2627 37.6918 11.9054 37.5438 10.7334 36.2009C7.33341 32.3054 3.91664 28.4223 0.626541 24.4353C0.35846 24.0465 0.170764 23.6081 0.074478 23.1457C-0.0218081 22.6834 -0.0247739 22.2064 0.065811 21.7429C0.214311 21.0756 1.18881 20.5921 1.93471 19.8989Z" fill="white"/>
<path d="M100.146 37.6839C99.3664 37.0392 98.3956 36.6286 98.2379 36.0106C98.1208 35.5548 98.0957 35.0804 98.164 34.6148C98.2323 34.1493 98.3926 33.702 98.6356 33.2991C100.609 30.758 102.791 28.3782 104.897 25.9403C106.205 24.427 107.499 22.9019 108.83 21.4096C109.983 20.1178 111.425 19.9418 112.471 20.9105C112.713 21.1411 112.905 21.4192 113.036 21.7273C113.166 22.0354 113.231 22.367 113.228 22.7015C113.224 23.0359 113.152 23.3662 113.016 23.6716C112.879 23.977 112.681 24.251 112.435 24.4767C109.104 28.3528 105.767 32.2243 102.381 36.0516C101.694 36.6704 100.945 37.2173 100.146 37.6839Z" fill="white"/>
<path d="M58.8415 10.6779C58.8415 13.1789 58.8588 15.6801 58.8357 18.1809C58.8192 19.9599 57.9117 21.007 56.4709 20.9921C55.0369 20.9773 54.1327 19.9227 54.127 18.1521C54.1102 13.0388 54.1107 7.92546 54.1284 2.81213C54.1352 1.03213 55.0461 -0.00597413 56.4914 2.58667e-05C57.9233 0.00602587 58.8195 1.05832 58.8354 2.84072C58.8588 5.45342 58.8415 8.06573 58.8415 10.6779Z" fill="white"/>
<path d="M68.2612 76.4386C65.8561 75.9548 63.4054 75.7015 60.99 75.2614C60.4413 75.133 59.966 74.7919 59.6686 74.3132C58.5445 72.2284 57.5212 70.089 56.4763 67.962C56.0622 67.1192 55.6137 66.358 54.5082 66.3678C53.3913 66.3778 52.9938 67.1878 52.5851 68.0196C51.5595 70.108 50.5604 72.2116 49.4501 74.2545C49.1395 74.7686 48.6386 75.1394 48.0561 75.2862C45.6429 75.7362 43.1906 75.9827 40.7861 76.4673C40.4065 76.5396 40.0471 76.6931 39.7325 76.9174C39.4178 77.1416 39.1554 77.4313 38.9632 77.7665C38.9174 78.1472 38.9553 78.5334 39.0743 78.898C39.1932 79.2626 39.3905 79.5968 39.6521 79.8772C41.196 81.5612 42.8233 83.1668 44.5278 84.688C44.9057 84.9955 45.1827 85.4093 45.323 85.8759C45.4633 86.3424 45.4604 86.8403 45.3148 87.3053C44.8432 89.6689 44.4955 92.0572 44.1071 94.3762C44.0334 96.1099 45.416 96.9771 47.0205 96.1821C49.2591 95.073 51.4352 93.8367 53.6864 92.7555C54.2448 92.5286 54.8703 92.5325 55.4258 92.7663C57.6004 93.8086 59.6833 95.0463 61.8767 96.0428C62.2446 96.209 62.6438 96.2944 63.0474 96.2933C63.451 96.2922 63.8498 96.2046 64.2167 96.0364C64.4702 95.7456 64.657 95.4028 64.764 95.0321C64.8709 94.6614 64.8954 94.2718 64.8357 93.8907C64.5394 91.4987 64.0048 89.1369 63.6768 86.7476C63.6281 86.1438 63.8211 85.5455 64.2134 85.084C65.904 83.3033 67.7473 81.6658 69.4084 79.8598C69.6702 79.5764 69.8667 79.239 69.9838 78.8714C70.1009 78.5038 70.1359 78.1149 70.0862 77.7323C69.8934 77.3977 69.6304 77.1088 69.3154 76.8855C69.0004 76.6622 68.6407 76.5097 68.2612 76.4386Z" fill="url(#paint0_linear_296_3779)"/>
<path d="M45.7299 48.0207C46.0697 48.2768 46.3239 48.6298 46.4591 49.0332C46.5943 49.4367 46.6041 49.8716 46.4872 50.2807C46.0941 52.0887 45.8203 53.9235 45.5267 55.752C45.4502 56.0506 45.4446 56.363 45.5104 56.6642C45.5763 56.9654 45.7117 57.247 45.9059 57.4864C46.1 57.7259 46.3475 57.9166 46.6286 58.0433C46.9096 58.17 47.2164 58.2291 47.5244 58.216C47.7744 58.1127 48.221 57.963 48.6353 57.7497C50.2436 56.9219 51.8677 56.1191 53.4325 55.2146C53.7671 54.9905 54.1613 54.8722 54.564 54.875C54.9666 54.8778 55.3591 55.0015 55.6906 55.2301C57.2458 56.154 58.8512 56.9905 60.4995 57.7358C61.219 58.0368 62.0234 58.0662 62.7629 57.8185C63.6756 57.4462 63.636 56.4385 63.485 55.5485C63.1825 53.7664 62.9136 51.9776 62.5586 50.2061C62.4497 49.8386 62.4515 49.4471 62.564 49.0807C62.6765 48.7143 62.8945 48.3891 63.1909 48.1461C64.5294 46.9305 65.785 45.624 67.0851 44.3661C67.4413 44.1177 67.7128 43.7662 67.863 43.3588C68.0132 42.9514 68.0349 42.5078 67.9252 42.0877C67.5972 41.067 66.7479 40.8177 65.8035 40.6884C63.9696 40.4373 62.1302 40.204 60.3151 39.8506C59.7691 39.7256 59.2929 39.3936 58.9869 38.9244C58.0432 37.2338 57.2984 35.4297 56.3158 33.7644C56.129 33.4302 55.873 33.1397 55.5651 32.9122C55.2571 32.6847 54.9043 32.5255 54.53 32.4451C54.1534 32.5151 53.7963 32.6658 53.4834 32.8867C53.1705 33.1076 52.9091 33.3936 52.717 33.7251C51.7515 35.3489 51.047 37.1264 50.1114 38.7705C49.7694 39.3134 49.2328 39.7051 48.6114 39.8654C46.7589 40.2454 44.8514 40.3635 43.0076 40.7754C42.6288 40.8524 42.2708 41.0094 41.9575 41.2358C41.6442 41.4623 41.3829 41.7531 41.191 42.0887C41.1473 42.4697 41.1859 42.8557 41.3041 43.2206C41.4223 43.5855 41.6174 43.9208 41.8762 44.2039C43.083 45.5523 44.3699 46.8269 45.7299 48.0207Z" fill="url(#paint1_linear_296_3779)"/>
<path d="M97.1832 61.1512C96.9988 60.8146 96.7438 60.5217 96.4358 60.2925C96.1278 60.0634 95.774 59.9035 95.3985 59.8236C93.5999 59.4102 91.7509 59.2043 89.9152 58.9685C89.5349 58.9541 89.1673 58.8285 88.8577 58.6071C88.5481 58.3858 88.3103 58.0784 88.1737 57.7232C87.4393 56.0242 86.6049 54.3702 85.6749 52.7699C85.2641 52.1016 84.6244 51.6054 83.875 51.3736C82.9301 51.1461 82.3614 51.9554 81.9588 52.7799C81.1466 54.4431 80.2804 56.0806 79.4968 57.7569C79.3833 58.0751 79.1793 58.3531 78.9099 58.5568C78.6404 58.7605 78.3173 58.881 77.9802 58.9034C76.0962 59.0982 74.2237 59.3911 72.3703 59.7812C71.6114 59.9705 70.9481 60.431 70.5055 61.0757C70.0076 61.8984 70.5641 62.7005 71.2334 63.342C72.6011 64.653 73.991 65.9462 75.2717 67.3388C75.6555 67.8079 75.8428 68.4072 75.7946 69.0112C75.5439 71.0588 75.1482 73.0885 74.8494 74.8704C74.7905 76.7988 76.0617 77.6652 77.6107 76.9292C79.3199 76.117 81.0028 75.2402 82.6463 74.3024C82.992 74.0563 83.4043 73.9209 83.8286 73.9142C84.2529 73.9075 84.6692 74.0298 85.0225 74.2648C86.6115 75.214 88.2559 76.0672 89.9469 76.8198C90.279 76.9727 90.6407 77.051 91.0064 77.049C91.3721 77.047 91.7329 76.9649 92.0634 76.8084C92.3225 76.5268 92.5195 76.1939 92.6416 75.8313C92.7638 75.4686 92.8083 75.0844 92.7725 74.7034C92.5961 72.7801 92.1313 70.8846 91.914 68.9634C91.8804 68.3578 92.0809 67.7624 92.474 67.3003C93.7561 65.9087 95.2201 64.682 96.4702 63.265C96.7319 62.9833 96.9308 62.6491 97.0537 62.2847C97.1767 61.9203 97.2208 61.534 97.1832 61.1512Z" fill="url(#paint2_linear_296_3779)"/>
<path d="M38.4604 58.4088C38.3041 57.8688 37.3904 57.3416 36.7258 57.1951C34.8797 56.7881 32.9942 56.5406 31.1141 56.3159C30.753 56.2959 30.4056 56.1709 30.1145 55.9563C29.8234 55.7417 29.6012 55.4468 29.4752 55.1078C28.7562 53.5439 27.9553 52.0179 27.1945 50.4733C26.7673 49.6064 26.3375 48.7351 25.1862 48.7176C23.9593 48.699 23.5352 49.6354 23.0908 50.5366C22.3101 52.1194 21.5761 53.7287 20.7131 55.2653C20.4111 55.7499 19.9335 56.0991 19.3801 56.2399C17.4815 56.6165 15.5577 56.872 13.6385 57.1373C12.714 57.2651 11.7985 57.5933 11.7385 58.5565C11.7473 59.3385 12.0352 60.0918 12.5502 60.6804C13.7226 62.0013 14.9818 63.2425 16.3195 64.3957C16.6866 64.6833 16.9565 65.0767 17.0926 65.5228C17.2287 65.9688 17.2245 66.4459 17.0806 66.8895C16.6865 68.7411 16.4217 70.6203 16.1174 72.4024C16.053 72.7522 16.0906 73.1132 16.2257 73.4423C16.3608 73.7713 16.5877 74.0545 16.8794 74.2582C17.1711 74.4618 17.5151 74.5773 17.8706 74.5907C18.2261 74.6042 18.5779 74.5151 18.8842 74.3342C20.5916 73.5169 22.2762 72.6435 23.921 71.707C24.2859 71.455 24.7181 71.3186 25.1615 71.3156C25.6049 71.3125 26.0389 71.4429 26.4072 71.6898C27.8831 72.5773 29.4162 73.3661 30.9965 74.0507C31.747 74.3795 32.5902 74.4302 33.3748 74.1938C34.3463 73.8005 34.236 72.7267 34.0792 71.8011C33.7846 70.0611 33.5447 68.3095 33.1782 66.5848C33.0628 66.2221 33.0602 65.8329 33.1707 65.4686C33.2812 65.1044 33.4996 64.7823 33.7971 64.5448C35.2192 63.2922 36.5673 61.9582 37.8348 60.5494C38.0849 60.2573 38.27 59.9154 38.3778 59.5463C38.4857 59.1773 38.5139 58.7895 38.4604 58.4088Z" fill="url(#paint3_linear_296_3779)"/>
<defs>
<linearGradient id="paint0_linear_296_3779" x1="38.9443" y1="92.7152" x2="64.2148" y2="64.4306" gradientUnits="userSpaceOnUse">
<stop offset="0.479167" stop-color="#F5478E"/>
<stop offset="0.981593" stop-color="#B347F5"/>
</linearGradient>
<linearGradient id="paint1_linear_296_3779" x1="41.1736" y1="54.9962" x2="62.7891" y2="30.669" gradientUnits="userSpaceOnUse">
<stop offset="0.479167" stop-color="#F5478E"/>
<stop offset="0.981593" stop-color="#B347F5"/>
</linearGradient>
<linearGradient id="paint2_linear_296_3779" x1="70.3142" y1="73.9579" x2="92.0011" y2="49.5723" gradientUnits="userSpaceOnUse">
<stop offset="0.479167" stop-color="#F5478E"/>
<stop offset="0.981593" stop-color="#B347F5"/>
</linearGradient>
<linearGradient id="paint3_linear_296_3779" x1="11.7385" y1="71.3577" x2="33.4562" y2="47.0776" gradientUnits="userSpaceOnUse">
<stop offset="0.479167" stop-color="#F5478E"/>
<stop offset="0.981593" stop-color="#B347F5"/>
</linearGradient>
</defs>
</svg>
