<svg width="41" height="41" viewBox="0 0 41 41" fill="none" xmlns="http://www.w3.org/2000/svg">
<path d="M30.4991 0H10.5009C7.71586 0 5.04492 1.10634 3.07563 3.07563C1.10634 5.04492 0 7.71586 0 10.5009V30.4991C0 33.2841 1.10634 35.9551 3.07563 37.9244C5.04492 39.8937 7.71586 41 10.5009 41H30.4991C33.2841 41 35.9551 39.8937 37.9244 37.9244C39.8937 35.9551 41 33.2841 41 30.4991V10.5009C41 7.71586 39.8937 5.04492 37.9244 3.07563C35.9551 1.10634 33.2841 0 30.4991 0ZM32.0711 33.4432C29.9027 33.4444 27.7343 33.4404 25.566 33.45C25.4729 33.4554 25.3803 33.4344 25.2987 33.3894C25.217 33.3444 25.1498 33.2772 25.1048 33.1956C23.0592 30.2073 21.0103 27.2213 18.958 24.2377C18.9048 24.1603 18.8464 24.0864 18.7637 23.9748C17.7749 25.1233 16.8112 26.2413 15.8491 27.3607C14.1523 29.335 12.4549 31.309 10.7572 33.2826C10.6948 33.3633 10.6048 33.418 10.5044 33.4365C9.87026 33.4495 9.23569 33.4436 8.51445 33.4436L17.8341 22.6011L8.50681 9.01367H8.9006C11.0159 9.01348 13.1312 9.01917 15.2464 9.00599C15.3647 8.99617 15.4833 9.02025 15.5883 9.0754C15.6934 9.13055 15.7806 9.21448 15.8396 9.31738C17.749 12.1162 19.6644 14.9109 21.5858 17.7014C21.6451 17.7876 21.7086 17.8706 21.7957 17.9901C22.1832 17.5405 22.5548 17.1102 22.9254 16.6791C25.0658 14.1895 27.2071 11.7007 29.3494 9.21277C29.4227 9.11525 29.5289 9.04771 29.6484 9.02275C30.2739 9.00516 30.9001 9.01395 31.6227 9.01395L22.7283 19.3636L32.3791 33.4202C32.248 33.4303 32.1596 33.4432 32.0711 33.4432Z" fill="black"/>
</svg>
